<svg width="37" height="32" viewBox="0 0 37 32" fill="none" xmlns="http://www.w3.org/2000/svg">
<path d="M0.911257 15.3267L9.20638 18.4227L12.4171 28.7483C12.6225 29.4097 13.4312 29.6541 13.968 29.2153L18.5918 25.4458C19.0765 25.0509 19.7669 25.0312 20.2734 25.3989L28.6131 31.4537C29.1873 31.8711 30.0008 31.5565 30.1448 30.8626L36.2541 1.4757C36.4114 0.717779 35.6666 0.0854988 34.9449 0.364619L0.901537 13.4975C0.0614168 13.8215 0.0687367 15.011 0.911257 15.3267ZM11.8997 16.7746L28.1114 6.78978C28.4028 6.61086 28.7025 7.00482 28.4523 7.2369L15.0729 19.6737C14.6027 20.1115 14.2993 20.6973 14.2134 21.3332L13.7576 24.7107C13.6973 25.1617 13.0638 25.2064 12.9393 24.77L11.1865 18.611C10.9857 17.9085 11.2783 17.1581 11.8997 16.7746Z" fill="#757575"/>
</svg>
