<svg width="46" height="44" viewBox="0 0 46 44" fill="none" xmlns="http://www.w3.org/2000/svg">
<g clip-path="url(#clip0_131_1682)">
<path d="M45.1955 31.9428C45.1408 31.8297 45.0899 31.7358 45.0425 31.6606C44.259 30.3057 42.7617 28.6426 40.5516 26.6708L40.5049 26.6257L40.4815 26.6035L40.4579 26.5809H40.4341C39.4311 25.6627 38.7959 25.0454 38.5299 24.7293C38.0432 24.1272 37.9341 23.5178 38.2001 22.9003C38.3881 22.4338 39.094 21.4485 40.3163 19.9432C40.9592 19.1454 41.4684 18.506 41.8445 18.0243C44.5565 14.5624 45.7322 12.3502 45.3715 11.3868L45.2314 11.1617C45.1373 11.0262 44.8944 10.9022 44.5029 10.7891C44.1106 10.6763 43.6091 10.6576 42.9977 10.7328L36.2262 10.7777C36.1165 10.7404 35.9598 10.7439 35.7558 10.7891C35.5519 10.8343 35.45 10.857 35.45 10.857L35.3321 10.9136L35.2386 10.9815C35.1602 11.0264 35.074 11.1054 34.9798 11.2183C34.8862 11.3309 34.8079 11.4629 34.7453 11.6134C34.008 13.4346 33.1698 15.1278 32.2291 16.693C31.6491 17.6263 31.1164 18.4351 30.63 19.12C30.1442 19.8046 29.7366 20.3091 29.4077 20.6324C29.0782 20.956 28.781 21.2153 28.514 21.4112C28.2474 21.6071 28.0439 21.6899 27.903 21.6596C27.7617 21.6294 27.6287 21.5993 27.5028 21.5693C27.2835 21.4337 27.1071 21.2494 26.9741 21.0161C26.8405 20.7829 26.7506 20.4893 26.7036 20.1356C26.6568 19.7816 26.6291 19.4772 26.6212 19.2212C26.6139 18.9656 26.6173 18.604 26.6332 18.1374C26.6495 17.6707 26.6568 17.3548 26.6568 17.1893C26.6568 16.6172 26.6684 15.9964 26.6917 15.3266C26.7154 14.6569 26.7346 14.1262 26.7507 13.7353C26.7667 13.3439 26.7741 12.9299 26.7741 12.4934C26.7741 12.0569 26.7464 11.7146 26.6917 11.4662C26.6377 11.218 26.5548 10.9772 26.4455 10.7437C26.3355 10.5104 26.1746 10.3299 25.9635 10.2018C25.7519 10.0739 25.4888 9.97236 25.1758 9.89692C24.3449 9.71639 23.2869 9.61874 22.0013 9.60355C19.0859 9.57351 17.2126 9.75427 16.3818 10.1456C16.0526 10.311 15.7548 10.5369 15.4884 10.8226C15.2062 11.1539 15.1668 11.3347 15.3706 11.3644C16.3112 11.4997 16.9771 11.8233 17.3691 12.335L17.5103 12.6062C17.6202 12.8018 17.7299 13.1481 17.8396 13.6447C17.9492 14.1413 18.02 14.6907 18.0511 15.2924C18.1294 16.3913 18.1294 17.332 18.0511 18.1145C17.9726 18.8973 17.8985 19.5068 17.8278 19.9433C17.757 20.3797 17.6513 20.7334 17.5103 21.0043C17.3691 21.2752 17.2751 21.4408 17.228 21.5009C17.181 21.561 17.1418 21.5988 17.1106 21.6137C16.9069 21.6887 16.695 21.7269 16.4757 21.7269C16.256 21.7269 15.9897 21.6214 15.6763 21.4106C15.3629 21.1998 15.0377 20.9102 14.7006 20.5414C14.3635 20.1725 13.9834 19.657 13.56 18.9948C13.137 18.3327 12.698 17.5501 12.2434 16.647L11.8673 15.9921C11.6322 15.5708 11.311 14.9574 10.9034 14.1523C10.4956 13.3469 10.1352 12.5679 9.8218 11.8153C9.69654 11.4993 9.50836 11.2587 9.25759 11.0931L9.13991 11.0252C9.06167 10.9651 8.93608 10.9012 8.76379 10.8332C8.59126 10.7653 8.41124 10.7166 8.22297 10.6866L1.78049 10.7316C1.12216 10.7316 0.675467 10.8748 0.440264 11.1608L0.346133 11.2961C0.299109 11.3714 0.275391 11.4918 0.275391 11.6574C0.275391 11.823 0.322415 12.0262 0.416546 12.2669C1.35703 14.3892 2.37979 16.4361 3.48481 18.4077C4.58984 20.3794 5.55009 21.9676 6.36498 23.1709C7.18004 24.3751 8.01083 25.5117 8.85735 26.58C9.70387 27.6487 10.2642 28.3335 10.5384 28.6344C10.8128 28.9358 11.0285 29.1612 11.1852 29.3117L11.7731 29.8534C12.1493 30.2147 12.7017 30.6474 13.4306 31.1515C14.1597 31.6559 14.9669 32.1525 15.8525 32.6421C16.7383 33.1308 17.7688 33.5297 18.9446 33.8381C20.1202 34.1469 21.2644 34.2708 22.3774 34.2111H25.0814C25.6298 34.1656 26.0453 34 26.3277 33.7142L26.4213 33.6011C26.4842 33.5113 26.5431 33.3717 26.5974 33.1839C26.6524 32.9958 26.6798 32.7885 26.6798 32.5631C26.6637 31.916 26.715 31.3328 26.8323 30.8136C26.9495 30.2946 27.0831 29.9032 27.2324 29.6397C27.3818 29.3764 27.5503 29.1542 27.7378 28.974C27.9257 28.7935 28.0596 28.6842 28.1382 28.6465C28.2163 28.6086 28.2786 28.5829 28.3256 28.5675C28.7018 28.4472 29.1445 28.5637 29.6545 28.9177C30.164 29.2714 30.6419 29.7082 31.0889 30.2272C31.5357 30.7467 32.0725 31.3296 32.6994 31.9767C33.3267 32.624 33.8751 33.1051 34.3452 33.4217L34.8153 33.6926C35.1292 33.8733 35.5368 34.0389 36.0385 34.1894C36.5393 34.3398 36.9781 34.3774 37.3548 34.3022L43.3739 34.2121C43.9692 34.2121 44.4324 34.1174 44.761 33.9296C45.0903 33.7415 45.2859 33.5343 45.349 33.3088C45.4119 33.0831 45.4152 32.8271 45.3609 32.5409C45.3051 32.2553 45.2502 32.0557 45.1955 31.9428Z" fill="#757575"/>
</g>
<defs>
<clipPath id="clip0_131_1682">
<rect width="45.1595" height="43.3611" fill="white" transform="translate(0.275391 0.288818)"/>
</clipPath>
</defs>
</svg>
