<svg width="13" height="13" viewBox="0 0 13 13" fill="none" xmlns="http://www.w3.org/2000/svg">
<g clip-path="url(#clip0_301_920)">
<path fill-rule="evenodd" clip-rule="evenodd" d="M1.44179 6.49037C1.8798 7.17256 2.4857 8.04222 3.29271 8.77C4.18602 9.57559 5.29691 10.1816 6.6754 10.1816C9.32475 10.1816 10.8728 7.99965 11.7652 6.49888C11.399 5.84939 10.8091 5.00494 10.0107 4.29047C9.12195 3.49515 8.002 2.88345 6.65702 2.83858C5.45031 2.79833 4.30766 3.39092 3.34321 4.22164C2.48713 4.95901 1.82233 5.84152 1.44179 6.49037ZM2.62224 3.38017C3.69355 2.45741 5.09868 1.67665 6.69384 1.72986C8.37125 1.78582 9.7285 2.551 10.7474 3.46284C11.7636 4.37221 12.4701 5.44981 12.8639 6.20221C12.9703 6.40543 12.9624 6.64457 12.8497 6.83854C12.0115 8.28152 10.1561 11.2909 6.6754 11.2909C4.94303 11.2909 3.58002 10.5211 2.55283 9.59482C1.53165 8.67391 0.814121 7.57324 0.362631 6.85656C0.239301 6.66084 0.224756 6.41124 0.337186 6.19841C0.743583 5.42902 1.54742 4.30595 2.62224 3.38017Z" fill="black"/>
<path fill-rule="evenodd" clip-rule="evenodd" d="M6.73168 5.41231C6.03396 5.41231 5.52889 5.93648 5.52889 6.51053C5.52889 7.08458 6.03396 7.60872 6.73168 7.60872C7.4294 7.60872 7.93446 7.08458 7.93446 6.51053C7.93446 5.93648 7.4294 5.41231 6.73168 5.41231ZM4.42249 6.51053C4.42249 5.25885 5.48978 4.30298 6.73168 4.30298C7.97355 4.30298 9.04084 5.25885 9.04084 6.51053C9.04084 7.76218 7.97355 8.71805 6.73168 8.71805C5.48978 8.71805 4.42249 7.76218 4.42249 6.51053Z" fill="black"/>
</g>
<defs>
<clipPath id="clip0_301_920">
<rect width="12.6781" height="12.6781" fill="white" transform="translate(0.260986 0.170166)"/>
</clipPath>
</defs>
</svg>
