<svg width="275" height="35" viewBox="0 0 275 35" fill="none" xmlns="http://www.w3.org/2000/svg">
<path d="M18.125 22.3933L15.0982 19.3756L18.125 16.3578V10.3223L9.07227 19.3756L18.125 28.4289V22.3933Z" fill="#8E0124"/>
<path d="M0 4.26758V34.4731H30.2036V4.26758H0ZM25.8901 30.1593H4.31348V8.58133H25.8901V30.1593Z" fill="#8E0124"/>
<path d="M173.195 4.573V34.1583H174.926V4.573H173.195Z" fill="#8E0124"/>
<path d="M37.6983 14.9504V12.4232C37.8001 12.4603 37.8834 12.488 37.9482 12.4973C38.1426 12.5436 38.3648 12.5714 38.5869 12.5714C39.3367 12.5714 39.8643 12.2751 40.1513 11.6734L40.2253 11.5253L36.6523 4.60107H39.781L41.6878 8.9241H41.7434L43.354 4.60107H46.4826L42.8356 12.3492C42.3913 13.2749 41.8637 13.9784 41.2713 14.4598C40.6789 14.9411 39.9291 15.1818 39.0405 15.1818C38.661 15.1818 38.337 15.1448 38.0593 15.08L37.6983 14.9504Z" fill="#8E0124"/>
<path d="M48.7129 15.0244V4.60107H51.5453V8.39644H55.3405V4.60107H58.1729V15.0244H55.3405V11.081H51.5453V15.0244H48.7129Z" fill="#8E0124"/>
<path d="M61.7461 15.0244V4.60107H64.5785V10.3311L69.0494 4.60107H71.5023V15.0244H68.6699V9.29436L64.199 15.0244H61.7461Z" fill="#8E0124"/>
<path d="M75.0762 15.0244V4.60107H79.6951C80.8336 4.60107 81.7315 4.86028 82.3794 5.38792C83.0274 5.91557 83.3421 6.57281 83.3421 7.3504C83.3421 8.05393 83.0829 8.62788 82.5553 9.08148C82.3609 9.2481 82.1018 9.39619 81.7778 9.51653C82.1666 9.65538 82.509 9.84053 82.8238 10.072C83.518 10.6089 83.8697 11.2939 83.8697 12.127C83.8697 12.9509 83.5365 13.6452 82.8608 14.2006C82.1851 14.756 81.2594 15.0337 80.0746 15.0337H75.0762V15.0244ZM77.9086 8.62786H79.4729C79.7692 8.62786 80.0098 8.54456 80.1764 8.37794C80.3523 8.21131 80.4356 7.99839 80.4356 7.72994C80.4356 7.46148 80.3523 7.24859 80.1764 7.08197C80.0006 6.91534 79.7692 6.83201 79.4729 6.83201H77.9086V8.62786ZM77.9086 12.7935H79.8432C80.1672 12.7935 80.4356 12.6917 80.6485 12.4973C80.8522 12.3029 80.9632 12.053 80.9632 11.7567C80.9632 11.4605 80.8614 11.2106 80.6485 11.0162C80.4356 10.8218 80.1672 10.72 79.8432 10.72H77.9086V12.7935Z" fill="#8E0124"/>
<path d="M86.7656 15.0244V4.60107H94.7354V7.1375H89.5981V8.62786H93.5413V11.0069H89.5981V12.4973H94.8835V15.0244H86.7656Z" fill="#8E0124"/>
<path d="M97.8555 15.0244V4.60107H102.548C103.687 4.60107 104.622 4.94361 105.344 5.63788C106.066 6.33215 106.427 7.20228 106.427 8.24832C106.427 9.30362 106.066 10.1738 105.344 10.8588C104.622 11.5531 103.696 11.8956 102.548 11.8956H100.688V15.0244H97.8555ZM100.688 9.36843H102.4C102.724 9.36843 103.011 9.25734 103.243 9.03517C103.474 8.813 103.594 8.55381 103.594 8.25759C103.594 7.96136 103.474 7.70217 103.243 7.48001C103.011 7.25784 102.724 7.14674 102.4 7.14674H100.688V9.36843Z" fill="#8E0124"/>
<path d="M117.441 11.3775L119.154 13.3122C118.811 13.701 118.432 14.0342 117.997 14.3212C117.025 14.9877 115.896 15.321 114.618 15.321C112.961 15.321 111.573 14.7841 110.471 13.7195C109.361 12.655 108.814 11.3497 108.814 9.81306C108.814 8.2764 109.37 6.97117 110.471 5.90661C111.582 4.84206 112.961 4.30518 114.618 4.30518C115.868 4.30518 116.988 4.63842 117.969 5.31418C118.404 5.61966 118.774 5.9529 119.089 6.31392L117.377 8.24863C117.145 7.99869 116.895 7.77652 116.618 7.58212C115.97 7.13779 115.303 6.91562 114.618 6.91562C113.804 6.91562 113.119 7.19333 112.554 7.75801C111.989 8.32268 111.712 9.00771 111.712 9.82232C111.712 10.6369 111.989 11.322 112.554 11.8866C113.119 12.4513 113.804 12.729 114.618 12.729C115.294 12.729 115.97 12.5068 116.645 12.0625C116.932 11.8496 117.201 11.6274 117.441 11.3775Z" fill="#8E0124"/>
<path d="M121.838 15.0244V4.60107H124.67V10.3311L129.141 4.60107H131.594V15.0244H128.762V9.29436L124.291 15.0244H121.838Z" fill="#8E0124"/>
<path d="M137.176 15.0246V7.12844H134.27V4.59204H142.906V7.12844H139.999V15.0246H137.176Z" fill="#8E0124"/>
<path d="M145.59 15.0244V4.60107H153.56V7.1375H148.422V8.62786H152.366V11.0069H148.422V12.4973H153.708V15.0244H145.59Z" fill="#8E0124"/>
<path d="M158.688 15.0244V7.1282H155.781V4.5918H164.417V7.1282H161.511V15.0244H158.688Z" fill="#8E0124"/>
<path d="M49.3742 28.5493L52.003 31.53C51.4847 32.1225 50.8923 32.6409 50.2165 33.0852C48.717 34.1127 46.9861 34.6219 45.0144 34.6219C42.4689 34.6219 40.34 33.798 38.6368 32.1595C36.9336 30.521 36.082 28.5123 36.082 26.1425C36.082 23.7727 36.9336 21.7732 38.6368 20.1254C40.34 18.487 42.4689 17.6631 45.0144 17.6631C46.9398 17.6631 48.6522 18.1815 50.1703 19.2182C50.846 19.6904 51.4106 20.1995 51.8919 20.7549L49.2539 23.7357C48.9021 23.3561 48.5134 23.0136 48.0876 22.7081C47.0971 22.0231 46.0697 21.6806 45.0144 21.6806C43.7648 21.6806 42.7003 22.1157 41.8395 22.9766C40.9787 23.8375 40.5436 24.8928 40.5436 26.1517C40.5436 27.4014 40.9787 28.466 41.8395 29.3269C42.7003 30.1878 43.7556 30.6228 45.0144 30.6228C46.0512 30.6228 47.0879 30.2803 48.1339 29.5953C48.5967 29.2806 49.0132 28.9381 49.3742 28.5493Z" fill="#8E0124"/>
<path d="M53.9102 34.1683V18.1353H58.2607V26.9572L65.1289 18.1353H68.9055V34.1683H64.555V25.3464L57.6868 34.1683H53.9102Z" fill="#8E0124"/>
<path d="M72.1895 34.1683V18.1353H76.54V23.9764H82.3807V18.1353H86.7312V34.1683H82.3807V28.0958H76.54V34.1683H72.1895Z" fill="#8E0124"/>
<path d="M90.0098 34.1683V18.1353H102.265V22.0324H94.3603V24.3189H100.432V27.9847H94.3603V30.2712H102.487V34.1683H90.0098Z" fill="#8E0124"/>
<path d="M104.848 34.1683V18.1353H112.058C113.817 18.1353 115.243 18.6629 116.353 19.7275C117.464 20.792 118.01 22.125 118.01 23.745C118.01 25.365 117.455 26.7072 116.353 27.7625C115.243 28.8271 113.817 29.3547 112.058 29.3547H109.198V34.1683H104.848ZM109.198 25.4575H111.836C112.336 25.4575 112.771 25.2816 113.132 24.9391C113.493 24.5966 113.669 24.1986 113.669 23.7357C113.669 23.2821 113.493 22.8748 113.132 22.5323C112.771 22.1898 112.345 22.0139 111.836 22.0139H109.198V25.4575Z" fill="#8E0124"/>
<path d="M120.381 34.1683V18.1353H131.609V22.2546H124.741V34.1683H120.381Z" fill="#8E0124"/>
<path d="M133.506 34.1683V18.1353H137.856V26.9572L144.725 18.1353H148.501V34.1683H144.151V25.3464L137.282 34.1683H133.506Z" fill="#8E0124"/>
<path d="M150.518 34.1683L153.841 28.2161C153.322 27.9754 152.859 27.6329 152.471 27.2071C151.554 26.2906 151.101 25.0965 151.101 23.6339C151.101 22.0787 151.647 20.7735 152.748 19.7182C153.85 18.6629 155.248 18.1353 156.942 18.1353H164.504V34.1683H160.153V29.1325H157.747L155.109 34.1683H150.518ZM157.164 25.2353H160.144V22.0324H157.164C156.664 22.0324 156.247 22.1898 155.923 22.486C155.599 22.7915 155.442 23.171 155.442 23.6339C155.442 24.0967 155.599 24.4763 155.923 24.7818C156.247 25.078 156.655 25.2353 157.164 25.2353Z" fill="#8E0124"/>
<path d="M183.686 15.5272V4.58448H185.405V9.89952L190.329 4.58448H192.518L188.297 9.1179L192.831 15.5272H190.72L187.125 10.3685L185.405 12.2444V15.5272H183.686Z" fill="#8E0124"/>
<path d="M192.98 15.5272L197.357 4.58448H199.233L203.61 15.5272H201.812L200.718 12.7134H195.872L194.778 15.5272H192.98ZM196.497 11.1501H200.093L198.295 6.6167L196.497 11.1501Z" fill="#8E0124"/>
<path d="M203.77 17.8721V13.8858H204.395C204.749 13.5419 205.062 13.0885 205.333 12.5258C205.958 11.296 206.271 9.74319 206.271 7.8673V4.58448H213.384V13.8858H214.712V17.8721H212.993V15.5272H205.489V17.8721H203.77ZM206.271 13.8858H211.664V6.22589H207.99V7.8673C207.99 9.68066 207.704 11.2335 207.131 12.5258C206.86 13.099 206.573 13.5523 206.271 13.8858Z" fill="#8E0124"/>
<path d="M216.66 15.5272V4.58448H221.037C222.09 4.58448 222.965 4.92318 223.664 5.60059C224.362 6.278 224.711 7.11173 224.711 8.10179C224.711 9.09184 224.362 9.92557 223.664 10.603C222.965 11.2804 222.09 11.6191 221.037 11.6191H218.38V15.5272H216.66ZM218.38 10.0558H221.037C221.579 10.0558 222.038 9.86825 222.413 9.49307C222.799 9.1179 222.991 8.65413 222.991 8.10179C222.991 7.54944 222.799 7.08568 222.413 6.7105C222.038 6.33532 221.579 6.14773 221.037 6.14773H218.38V10.0558Z" fill="#8E0124"/>
<path d="M229.169 7.17947C228.387 7.96109 227.996 8.91988 227.996 10.0558C227.996 11.1918 228.387 12.1558 229.169 12.9478C229.961 13.7295 230.925 14.1203 232.061 14.1203C233.197 14.1203 234.155 13.7295 234.937 12.9478C235.729 12.1558 236.125 11.1918 236.125 10.0558C236.125 8.91988 235.729 7.96109 234.937 7.17947C234.155 6.38742 233.197 5.9914 232.061 5.9914C230.925 5.9914 229.961 6.38742 229.169 7.17947ZM227.934 14.0578C226.829 12.9635 226.277 11.6295 226.277 10.0558C226.277 8.48217 226.829 7.15342 227.934 6.06957C229.049 4.97529 230.424 4.42816 232.061 4.42816C233.697 4.42816 235.067 4.97529 236.172 6.06957C237.287 7.15342 237.845 8.48217 237.845 10.0558C237.845 11.6295 237.287 12.9635 236.172 14.0578C235.067 15.1416 233.697 15.6835 232.061 15.6835C230.424 15.6835 229.049 15.1416 227.934 14.0578Z" fill="#8E0124"/>
<path d="M240.262 15.5272V4.58448H244.639C245.598 4.58448 246.384 4.86587 246.999 5.42863C247.614 5.9914 247.922 6.67402 247.922 7.47649C247.922 8.12263 247.697 8.69061 247.249 9.18043C247.072 9.37844 246.853 9.53997 246.593 9.66503C246.947 9.80051 247.26 9.99853 247.531 10.2591C248.156 10.801 248.469 11.4888 248.469 12.3226C248.469 13.198 248.125 13.9535 247.437 14.5893C246.76 15.2146 245.905 15.5272 244.873 15.5272H240.262ZM241.981 14.0421H244.873C245.426 14.0421 245.874 13.8702 246.218 13.5263C246.572 13.1823 246.749 12.755 246.749 12.2444C246.749 11.7337 246.572 11.3064 246.218 10.9625C245.874 10.6186 245.426 10.4467 244.873 10.4467H241.981V14.0421ZM241.981 9.03973H244.639C245.108 9.03973 245.483 8.90425 245.764 8.63329C246.056 8.35191 246.202 7.99236 246.202 7.55465C246.202 7.11694 246.056 6.7626 245.764 6.49164C245.483 6.21026 245.108 6.06957 244.639 6.06957H241.981V9.03973Z" fill="#8E0124"/>
<path d="M260.344 15.5272V4.58448H262.064V15.5272H260.344ZM250.887 15.5272V4.58448H252.606V8.4926H255.108C256.16 8.4926 257.036 8.8313 257.734 9.50871C258.432 10.1861 258.781 11.0198 258.781 12.0099C258.781 13 258.432 13.8337 257.734 14.5111C257.036 15.1885 256.16 15.5272 255.108 15.5272H250.887ZM252.606 13.964H255.108C255.65 13.964 256.108 13.7764 256.483 13.4012C256.869 13.026 257.062 12.5622 257.062 12.0099C257.062 11.4576 256.869 10.9938 256.483 10.6186C256.108 10.2434 255.65 10.0558 255.108 10.0558H252.606V13.964Z" fill="#8E0124"/>
<path d="M265.191 15.5272V4.58448H266.911V12.6352L272.929 4.58448H274.492V15.5272H272.773V7.47649L266.754 15.5272H265.191ZM267.536 0.989014H268.708C268.708 1.30166 268.813 1.5622 269.021 1.77064C269.23 1.97907 269.49 2.08329 269.803 2.08329C270.115 2.08329 270.376 1.97907 270.584 1.77064C270.793 1.5622 270.897 1.30166 270.897 0.989014H272.069C272.069 1.61431 271.856 2.13539 271.428 2.55226C271.001 2.96913 270.459 3.17756 269.803 3.17756C269.146 3.17756 268.604 2.96913 268.177 2.55226C267.75 2.13539 267.536 1.61431 267.536 0.989014Z" fill="#8E0124"/>
<path d="M183.686 34.0019V23.0592H188.063C189.115 23.0592 189.991 23.3979 190.689 24.0753C191.387 24.7527 191.736 25.5865 191.736 26.5765C191.736 27.5666 191.387 28.4003 190.689 29.0777C189.991 29.7551 189.115 30.0938 188.063 30.0938H185.405V34.0019H183.686ZM185.405 28.5306H188.063C188.605 28.5306 189.063 28.343 189.438 27.9678C189.824 27.5926 190.017 27.1289 190.017 26.5765C190.017 26.0242 189.824 25.5604 189.438 25.1852C189.063 24.81 188.605 24.6225 188.063 24.6225H185.405V28.5306Z" fill="#8E0124"/>
<path d="M194.005 34.0019V23.0592H201.743V24.7006H195.725V27.5145H200.493V29.1559H195.725V32.3605H201.9V34.0019H194.005Z" fill="#8E0124"/>
<path d="M202.617 32.4387L203.789 31.2663C203.987 31.5268 204.227 31.7509 204.508 31.9385C205.154 32.3762 205.879 32.595 206.681 32.595C207.432 32.595 208.02 32.4231 208.448 32.0791C208.885 31.7248 209.104 31.2975 209.104 30.7973C209.104 30.3387 208.885 29.9375 208.448 29.5936C208.01 29.2497 207.421 29.0777 206.681 29.0777H205.274V27.4363H206.681C207.306 27.4363 207.801 27.2904 208.166 26.9986C208.531 26.7068 208.713 26.3525 208.713 25.9356C208.713 25.5291 208.531 25.1852 208.166 24.9038C207.812 24.612 207.317 24.4661 206.681 24.4661C205.993 24.4661 205.358 24.6641 204.774 25.0602C204.545 25.2061 204.321 25.3989 204.102 25.6386L202.929 24.4661C203.169 24.1952 203.492 23.9346 203.899 23.6845C204.753 23.1634 205.681 22.9029 206.681 22.9029C207.848 22.9029 208.765 23.1791 209.432 23.7314C210.099 24.2838 210.433 24.9716 210.433 25.7949C210.433 26.5453 210.146 27.1758 209.573 27.6864C209.313 27.8949 209.026 28.072 208.713 28.2179C209.099 28.3534 209.448 28.541 209.761 28.7807C210.469 29.3226 210.824 30.0209 210.824 30.8754C210.824 31.7717 210.443 32.5429 209.683 33.189C208.922 33.8352 207.921 34.1583 206.681 34.1583C205.514 34.1583 204.493 33.8717 203.617 33.2985C203.2 33.0275 202.867 32.7409 202.617 32.4387Z" fill="#8E0124"/>
<path d="M213.164 34.0019V23.0592H220.902V24.7006H214.884V27.5145H219.652V29.1559H214.884V32.3605H221.059V34.0019H213.164Z" fill="#8E0124"/>
<path d="M223.332 34.0019V23.0592H227.709C228.761 23.0592 229.637 23.3979 230.335 24.0753C231.033 24.7527 231.382 25.5865 231.382 26.5765C231.382 27.5666 231.033 28.4003 230.335 29.0777C229.637 29.7551 228.761 30.0938 227.709 30.0938H225.051V34.0019H223.332ZM225.051 28.5306H227.709C228.251 28.5306 228.709 28.343 229.084 27.9678C229.47 27.5926 229.663 27.1289 229.663 26.5765C229.663 26.0242 229.47 25.5604 229.084 25.1852C228.709 24.81 228.251 24.6225 227.709 24.6225H225.051V28.5306Z" fill="#8E0124"/>
<path d="M233.651 34.0019V23.0592H238.029C238.987 23.0592 239.774 23.3406 240.389 23.9034C241.004 24.4661 241.311 25.1488 241.311 25.9512C241.311 26.5974 241.087 27.1653 240.639 27.6552C240.462 27.8532 240.243 28.0147 239.983 28.1398C240.337 28.2752 240.65 28.4733 240.921 28.7338C241.546 29.2757 241.858 29.9636 241.858 30.7973C241.858 31.6727 241.515 32.4283 240.827 33.064C240.149 33.6893 239.295 34.0019 238.263 34.0019H233.651ZM235.371 32.5169H238.263C238.815 32.5169 239.263 32.3449 239.607 32.001C239.962 31.6571 240.139 31.2298 240.139 30.7191C240.139 30.2085 239.962 29.7812 239.607 29.4373C239.263 29.0933 238.815 28.9214 238.263 28.9214H235.371V32.5169ZM235.371 27.5145H238.029C238.497 27.5145 238.873 27.379 239.154 27.108C239.446 26.8266 239.592 26.4671 239.592 26.0294C239.592 25.5917 239.446 25.2373 239.154 24.9664C238.873 24.685 238.497 24.5443 238.029 24.5443H235.371V27.5145Z" fill="#8E0124"/>
</svg>
